<svg width="84" height="86" viewBox="0 0 84 86" fill="none" xmlns="http://www.w3.org/2000/svg">
<path d="M38 69V51L41 45V69C41.4552 70.4079 42.6675 71.0418 44.4653 71.9819L44.5 72H47V74H32V72H35C36.3478 71.1178 37.0149 70.4674 38 69Z" fill="#CE5FF8"/>
<path d="M69 76.1312L42 43.1312C58.1581 14.0958 65.5143 1.623 75 0.131218C79.9032 -0.248571 81 0.131221 82.5 2.13122C87 10.1312 76 13.1312 77 7.13123C78.2155 2.23327 77.8086 2.19436 75 2.13122C68.1976 4.00808 67.0429 2.72365 48.5 34.1312L66.5 56.1312V36.6312C65.3653 34.7877 64.2424 33.8883 61 32.6312V30.6312H75V32.6312C72.054 33.5844 71.1234 34.4541 69 36.6312V76.1312Z" fill="#CE5FF8"/>
<path d="M40.5 43C38 48 35.4619 53.5 35.4619 53.5L31.9619 60C30 63.5 25.9619 70 20.4619 77.5C20.4619 77.5 12.9619 87.5 3.96191 85C-0.0381348 83.8889 -1.53813 77.5 1.96188 75C9 72 4.46187 82.5 6.96191 83C9.46187 82.5 11.4619 83 17.4619 78C24.4619 70.5 28.4619 62.5 34.4619 51.5L31.9619 43.45L16.9619 43.5L15.4619 47C14.4619 49 14.0864 49.9967 14.0864 50.4967C14.0863 51.53 15.3864 53.03 16.0864 53.4967C16.0864 53.4967 16.9952 53.4667 18.4619 53.5V55C16.5619 54.9 12.3952 55 10.4619 55C8.96191 55 5.96191 54.9 4.96191 55V53.5C6.62858 53.1 8.99524 52.5 9.96191 50L27.9619 11L31 19L40.5 43ZM32.9619 38.5L27 23L19.9619 38.5H32.9619Z" fill="#CE5FF8"/>
</svg>
